<mxfile host="app.diagrams.net" modified="2024-06-18T14:04:16.614Z" agent="Mozilla/5.0 (Windows NT 10.0; Win64; x64) AppleWebKit/537.36 (KHTML, like Gecko) Chrome/120.0.0.0 Safari/537.36" etag="MvXuTW8sJLYqjPaYlfis" version="24.5.4" type="device">
  <diagram id="BV8PnPK56YHXvDA-vEE0" name="페이지-1">
    <mxGraphModel dx="2118" dy="1328" grid="0" gridSize="10" guides="1" tooltips="1" connect="1" arrows="1" fold="1" page="1" pageScale="1" pageWidth="827" pageHeight="1169" math="0" shadow="0">
      <root>
        <mxCell id="0" />
        <mxCell id="1" parent="0" />
        <mxCell id="af42bFPyFCvFy3UAimLH-1" value="ASRBaseGameMode" style="swimlane;fontStyle=0;childLayout=stackLayout;horizontal=1;startSize=26;fillColor=none;horizontalStack=0;resizeParent=1;resizeParentMax=0;resizeLast=0;collapsible=1;marginBottom=0;whiteSpace=wrap;html=1;" vertex="1" parent="1">
          <mxGeometry x="168" y="74" width="200" height="52" as="geometry" />
        </mxCell>
        <mxCell id="af42bFPyFCvFy3UAimLH-2" value="# CurrentMode : EGameMode" style="text;strokeColor=none;fillColor=none;align=left;verticalAlign=top;spacingLeft=4;spacingRight=4;overflow=hidden;rotatable=0;points=[[0,0.5],[1,0.5]];portConstraint=eastwest;whiteSpace=wrap;html=1;" vertex="1" parent="af42bFPyFCvFy3UAimLH-1">
          <mxGeometry y="26" width="200" height="26" as="geometry" />
        </mxCell>
        <mxCell id="af42bFPyFCvFy3UAimLH-5" value="ASRCompetitionGameMode" style="swimlane;fontStyle=0;childLayout=stackLayout;horizontal=1;startSize=26;fillColor=none;horizontalStack=0;resizeParent=1;resizeParentMax=0;resizeLast=0;collapsible=1;marginBottom=0;whiteSpace=wrap;html=1;" vertex="1" parent="1">
          <mxGeometry x="41" y="205" width="200" height="52" as="geometry" />
        </mxCell>
        <mxCell id="af42bFPyFCvFy3UAimLH-6" value="- EndCondition : int32" style="text;strokeColor=none;fillColor=none;align=left;verticalAlign=top;spacingLeft=4;spacingRight=4;overflow=hidden;rotatable=0;points=[[0,0.5],[1,0.5]];portConstraint=eastwest;whiteSpace=wrap;html=1;" vertex="1" parent="af42bFPyFCvFy3UAimLH-5">
          <mxGeometry y="26" width="200" height="26" as="geometry" />
        </mxCell>
        <mxCell id="af42bFPyFCvFy3UAimLH-13" value="is" style="endArrow=block;endSize=16;endFill=0;html=1;rounded=0;" edge="1" parent="1" source="af42bFPyFCvFy3UAimLH-5" target="af42bFPyFCvFy3UAimLH-1">
          <mxGeometry width="160" relative="1" as="geometry">
            <mxPoint x="143.5" y="249" as="sourcePoint" />
            <mxPoint x="266" y="126" as="targetPoint" />
          </mxGeometry>
        </mxCell>
        <mxCell id="af42bFPyFCvFy3UAimLH-14" value="ASRInfinityGameMode" style="swimlane;fontStyle=0;childLayout=stackLayout;horizontal=1;startSize=26;fillColor=none;horizontalStack=0;resizeParent=1;resizeParentMax=0;resizeLast=0;collapsible=1;marginBottom=0;whiteSpace=wrap;html=1;" vertex="1" parent="1">
          <mxGeometry x="289" y="205" width="200" height="52" as="geometry" />
        </mxCell>
        <mxCell id="af42bFPyFCvFy3UAimLH-16" value="is" style="endArrow=block;endSize=16;endFill=0;html=1;rounded=0;" edge="1" parent="1" source="af42bFPyFCvFy3UAimLH-14" target="af42bFPyFCvFy3UAimLH-1">
          <mxGeometry x="0.0024" width="160" relative="1" as="geometry">
            <mxPoint x="399" y="95" as="sourcePoint" />
            <mxPoint x="559" y="95" as="targetPoint" />
            <mxPoint as="offset" />
          </mxGeometry>
        </mxCell>
        <mxCell id="af42bFPyFCvFy3UAimLH-19" value="ASRPlayerState" style="swimlane;fontStyle=0;childLayout=stackLayout;horizontal=1;startSize=26;fillColor=none;horizontalStack=0;resizeParent=1;resizeParentMax=0;resizeLast=0;collapsible=1;marginBottom=0;whiteSpace=wrap;html=1;" vertex="1" parent="1">
          <mxGeometry x="846" y="74" width="200" height="78" as="geometry" />
        </mxCell>
        <mxCell id="af42bFPyFCvFy3UAimLH-20" value="-&amp;nbsp;NumOfCurrentBullets : int32" style="text;strokeColor=none;fillColor=none;align=left;verticalAlign=top;spacingLeft=4;spacingRight=4;overflow=hidden;rotatable=0;points=[[0,0.5],[1,0.5]];portConstraint=eastwest;whiteSpace=wrap;html=1;" vertex="1" parent="af42bFPyFCvFy3UAimLH-19">
          <mxGeometry y="26" width="200" height="26" as="geometry" />
        </mxCell>
        <mxCell id="af42bFPyFCvFy3UAimLH-22" value="- NumOfTotalBullets : int32" style="text;strokeColor=none;fillColor=none;align=left;verticalAlign=top;spacingLeft=4;spacingRight=4;overflow=hidden;rotatable=0;points=[[0,0.5],[1,0.5]];portConstraint=eastwest;whiteSpace=wrap;html=1;" vertex="1" parent="af42bFPyFCvFy3UAimLH-19">
          <mxGeometry y="52" width="200" height="26" as="geometry" />
        </mxCell>
        <mxCell id="af42bFPyFCvFy3UAimLH-23" value="ASRPlayerController" style="swimlane;fontStyle=0;childLayout=stackLayout;horizontal=1;startSize=26;fillColor=none;horizontalStack=0;resizeParent=1;resizeParentMax=0;resizeLast=0;collapsible=1;marginBottom=0;whiteSpace=wrap;html=1;" vertex="1" parent="1">
          <mxGeometry x="1194" y="74" width="393" height="442" as="geometry" />
        </mxCell>
        <mxCell id="af42bFPyFCvFy3UAimLH-24" value="-&amp;nbsp;HUDWidgetClass : TSubclassOf&amp;lt;UHUDWidget&amp;gt;" style="text;strokeColor=none;fillColor=none;align=left;verticalAlign=top;spacingLeft=4;spacingRight=4;overflow=hidden;rotatable=0;points=[[0,0.5],[1,0.5]];portConstraint=eastwest;whiteSpace=wrap;html=1;" vertex="1" parent="af42bFPyFCvFy3UAimLH-23">
          <mxGeometry y="26" width="393" height="26" as="geometry" />
        </mxCell>
        <mxCell id="af42bFPyFCvFy3UAimLH-30" value="- HUDWidget : UHUDWidget*" style="text;strokeColor=none;fillColor=none;align=left;verticalAlign=top;spacingLeft=4;spacingRight=4;overflow=hidden;rotatable=0;points=[[0,0.5],[1,0.5]];portConstraint=eastwest;whiteSpace=wrap;html=1;" vertex="1" parent="af42bFPyFCvFy3UAimLH-23">
          <mxGeometry y="52" width="393" height="26" as="geometry" />
        </mxCell>
        <mxCell id="af42bFPyFCvFy3UAimLH-29" value="-&amp;nbsp;HuddyWidgetClass: TSubclassOf&amp;lt;UUserWidget&amp;gt;" style="text;strokeColor=none;fillColor=none;align=left;verticalAlign=top;spacingLeft=4;spacingRight=4;overflow=hidden;rotatable=0;points=[[0,0.5],[1,0.5]];portConstraint=eastwest;whiteSpace=wrap;html=1;" vertex="1" parent="af42bFPyFCvFy3UAimLH-23">
          <mxGeometry y="78" width="393" height="26" as="geometry" />
        </mxCell>
        <mxCell id="af42bFPyFCvFy3UAimLH-25" value="- HuddyWidget: UUserWidget*" style="text;strokeColor=none;fillColor=none;align=left;verticalAlign=top;spacingLeft=4;spacingRight=4;overflow=hidden;rotatable=0;points=[[0,0.5],[1,0.5]];portConstraint=eastwest;whiteSpace=wrap;html=1;" vertex="1" parent="af42bFPyFCvFy3UAimLH-23">
          <mxGeometry y="104" width="393" height="26" as="geometry" />
        </mxCell>
        <mxCell id="af42bFPyFCvFy3UAimLH-31" value="- PauseWidgetClass : TSubclassOf&amp;lt;USRGamePlayWidget&amp;gt;" style="text;strokeColor=none;fillColor=none;align=left;verticalAlign=top;spacingLeft=4;spacingRight=4;overflow=hidden;rotatable=0;points=[[0,0.5],[1,0.5]];portConstraint=eastwest;whiteSpace=wrap;html=1;" vertex="1" parent="af42bFPyFCvFy3UAimLH-23">
          <mxGeometry y="130" width="393" height="26" as="geometry" />
        </mxCell>
        <mxCell id="af42bFPyFCvFy3UAimLH-32" value="- PauseWidget : USRGamePlayWidget*" style="text;strokeColor=none;fillColor=none;align=left;verticalAlign=top;spacingLeft=4;spacingRight=4;overflow=hidden;rotatable=0;points=[[0,0.5],[1,0.5]];portConstraint=eastwest;whiteSpace=wrap;html=1;" vertex="1" parent="af42bFPyFCvFy3UAimLH-23">
          <mxGeometry y="156" width="393" height="26" as="geometry" />
        </mxCell>
        <mxCell id="af42bFPyFCvFy3UAimLH-34" value="- CheckRankWidgetClass : TSubclassOf&amp;lt;USRCheckRankWidget&amp;gt;" style="text;strokeColor=none;fillColor=none;align=left;verticalAlign=top;spacingLeft=4;spacingRight=4;overflow=hidden;rotatable=0;points=[[0,0.5],[1,0.5]];portConstraint=eastwest;whiteSpace=wrap;html=1;" vertex="1" parent="af42bFPyFCvFy3UAimLH-23">
          <mxGeometry y="182" width="393" height="26" as="geometry" />
        </mxCell>
        <mxCell id="af42bFPyFCvFy3UAimLH-33" value="- CheckRankWidget : USRCheckRankWidget*" style="text;strokeColor=none;fillColor=none;align=left;verticalAlign=top;spacingLeft=4;spacingRight=4;overflow=hidden;rotatable=0;points=[[0,0.5],[1,0.5]];portConstraint=eastwest;whiteSpace=wrap;html=1;" vertex="1" parent="af42bFPyFCvFy3UAimLH-23">
          <mxGeometry y="208" width="393" height="26" as="geometry" />
        </mxCell>
        <mxCell id="af42bFPyFCvFy3UAimLH-35" value="- RankingWidgetClass : TSubclassOf&amp;lt;USRRankingWidget&amp;gt;" style="text;strokeColor=none;fillColor=none;align=left;verticalAlign=top;spacingLeft=4;spacingRight=4;overflow=hidden;rotatable=0;points=[[0,0.5],[1,0.5]];portConstraint=eastwest;whiteSpace=wrap;html=1;" vertex="1" parent="af42bFPyFCvFy3UAimLH-23">
          <mxGeometry y="234" width="393" height="26" as="geometry" />
        </mxCell>
        <mxCell id="af42bFPyFCvFy3UAimLH-42" value="- RankingWidget : USRRankingWidget*" style="text;strokeColor=none;fillColor=none;align=left;verticalAlign=top;spacingLeft=4;spacingRight=4;overflow=hidden;rotatable=0;points=[[0,0.5],[1,0.5]];portConstraint=eastwest;whiteSpace=wrap;html=1;" vertex="1" parent="af42bFPyFCvFy3UAimLH-23">
          <mxGeometry y="260" width="393" height="26" as="geometry" />
        </mxCell>
        <mxCell id="af42bFPyFCvFy3UAimLH-41" value="- CheckRankWidgetClass : TSubclassOf&amp;lt;USRCheckRankWidget&amp;gt;" style="text;strokeColor=none;fillColor=none;align=left;verticalAlign=top;spacingLeft=4;spacingRight=4;overflow=hidden;rotatable=0;points=[[0,0.5],[1,0.5]];portConstraint=eastwest;whiteSpace=wrap;html=1;" vertex="1" parent="af42bFPyFCvFy3UAimLH-23">
          <mxGeometry y="286" width="393" height="26" as="geometry" />
        </mxCell>
        <mxCell id="af42bFPyFCvFy3UAimLH-39" value="- CheckRankWidget : USRCheckRankWidget*" style="text;strokeColor=none;fillColor=none;align=left;verticalAlign=top;spacingLeft=4;spacingRight=4;overflow=hidden;rotatable=0;points=[[0,0.5],[1,0.5]];portConstraint=eastwest;whiteSpace=wrap;html=1;" vertex="1" parent="af42bFPyFCvFy3UAimLH-23">
          <mxGeometry y="312" width="393" height="26" as="geometry" />
        </mxCell>
        <mxCell id="af42bFPyFCvFy3UAimLH-40" value="- SelectWeaponWidgetClass : TSubclassOf&amp;lt;USRSelectWeaponWidget" style="text;strokeColor=none;fillColor=none;align=left;verticalAlign=top;spacingLeft=4;spacingRight=4;overflow=hidden;rotatable=0;points=[[0,0.5],[1,0.5]];portConstraint=eastwest;whiteSpace=wrap;html=1;" vertex="1" parent="af42bFPyFCvFy3UAimLH-23">
          <mxGeometry y="338" width="393" height="26" as="geometry" />
        </mxCell>
        <mxCell id="af42bFPyFCvFy3UAimLH-38" value="- SelectWeaponWidget : USRSelectWeaponWidget*" style="text;strokeColor=none;fillColor=none;align=left;verticalAlign=top;spacingLeft=4;spacingRight=4;overflow=hidden;rotatable=0;points=[[0,0.5],[1,0.5]];portConstraint=eastwest;whiteSpace=wrap;html=1;" vertex="1" parent="af42bFPyFCvFy3UAimLH-23">
          <mxGeometry y="364" width="393" height="26" as="geometry" />
        </mxCell>
        <mxCell id="af42bFPyFCvFy3UAimLH-37" value="- SettingWidgetClass : TSubclassOf&amp;lt;USRSettingWidget&amp;gt;" style="text;strokeColor=none;fillColor=none;align=left;verticalAlign=top;spacingLeft=4;spacingRight=4;overflow=hidden;rotatable=0;points=[[0,0.5],[1,0.5]];portConstraint=eastwest;whiteSpace=wrap;html=1;" vertex="1" parent="af42bFPyFCvFy3UAimLH-23">
          <mxGeometry y="390" width="393" height="26" as="geometry" />
        </mxCell>
        <mxCell id="af42bFPyFCvFy3UAimLH-36" value="- SettingWidget : USRSettingWidget*" style="text;strokeColor=none;fillColor=none;align=left;verticalAlign=top;spacingLeft=4;spacingRight=4;overflow=hidden;rotatable=0;points=[[0,0.5],[1,0.5]];portConstraint=eastwest;whiteSpace=wrap;html=1;" vertex="1" parent="af42bFPyFCvFy3UAimLH-23">
          <mxGeometry y="416" width="393" height="26" as="geometry" />
        </mxCell>
        <mxCell id="af42bFPyFCvFy3UAimLH-46" value="ASRCharacter" style="swimlane;fontStyle=0;childLayout=stackLayout;horizontal=1;startSize=26;fillColor=none;horizontalStack=0;resizeParent=1;resizeParentMax=0;resizeLast=0;collapsible=1;marginBottom=0;whiteSpace=wrap;html=1;" vertex="1" parent="1">
          <mxGeometry x="168" y="348.48" width="447" height="208" as="geometry" />
        </mxCell>
        <mxCell id="af42bFPyFCvFy3UAimLH-47" value="- SpringArm :&amp;nbsp; USpringArmComponent*" style="text;strokeColor=none;fillColor=none;align=left;verticalAlign=top;spacingLeft=4;spacingRight=4;overflow=hidden;rotatable=0;points=[[0,0.5],[1,0.5]];portConstraint=eastwest;whiteSpace=wrap;html=1;" vertex="1" parent="af42bFPyFCvFy3UAimLH-46">
          <mxGeometry y="26" width="447" height="26" as="geometry" />
        </mxCell>
        <mxCell id="af42bFPyFCvFy3UAimLH-48" value="- Camera : UCameraComponent*" style="text;strokeColor=none;fillColor=none;align=left;verticalAlign=top;spacingLeft=4;spacingRight=4;overflow=hidden;rotatable=0;points=[[0,0.5],[1,0.5]];portConstraint=eastwest;whiteSpace=wrap;html=1;" vertex="1" parent="af42bFPyFCvFy3UAimLH-46">
          <mxGeometry y="52" width="447" height="26" as="geometry" />
        </mxCell>
        <mxCell id="af42bFPyFCvFy3UAimLH-49" value="- ADSCamera :&amp;nbsp;UCameraComponent*" style="text;strokeColor=none;fillColor=none;align=left;verticalAlign=top;spacingLeft=4;spacingRight=4;overflow=hidden;rotatable=0;points=[[0,0.5],[1,0.5]];portConstraint=eastwest;whiteSpace=wrap;html=1;" vertex="1" parent="af42bFPyFCvFy3UAimLH-46">
          <mxGeometry y="78" width="447" height="26" as="geometry" />
        </mxCell>
        <mxCell id="af42bFPyFCvFy3UAimLH-58" value="- CurrentControlView : EControlView" style="text;strokeColor=none;fillColor=none;align=left;verticalAlign=top;spacingLeft=4;spacingRight=4;overflow=hidden;rotatable=0;points=[[0,0.5],[1,0.5]];portConstraint=eastwest;whiteSpace=wrap;html=1;" vertex="1" parent="af42bFPyFCvFy3UAimLH-46">
          <mxGeometry y="104" width="447" height="26" as="geometry" />
        </mxCell>
        <mxCell id="af42bFPyFCvFy3UAimLH-60" value="- SRAnim : USRAnimInstance*" style="text;strokeColor=none;fillColor=none;align=left;verticalAlign=top;spacingLeft=4;spacingRight=4;overflow=hidden;rotatable=0;points=[[0,0.5],[1,0.5]];portConstraint=eastwest;whiteSpace=wrap;html=1;" vertex="1" parent="af42bFPyFCvFy3UAimLH-46">
          <mxGeometry y="130" width="447" height="26" as="geometry" />
        </mxCell>
        <mxCell id="af42bFPyFCvFy3UAimLH-59" value="- AimingAngle : int32" style="text;strokeColor=none;fillColor=none;align=left;verticalAlign=top;spacingLeft=4;spacingRight=4;overflow=hidden;rotatable=0;points=[[0,0.5],[1,0.5]];portConstraint=eastwest;whiteSpace=wrap;html=1;" vertex="1" parent="af42bFPyFCvFy3UAimLH-46">
          <mxGeometry y="156" width="447" height="26" as="geometry" />
        </mxCell>
        <mxCell id="af42bFPyFCvFy3UAimLH-61" value="- CurrentWeapon : ASRWeapon*" style="text;strokeColor=none;fillColor=none;align=left;verticalAlign=top;spacingLeft=4;spacingRight=4;overflow=hidden;rotatable=0;points=[[0,0.5],[1,0.5]];portConstraint=eastwest;whiteSpace=wrap;html=1;" vertex="1" parent="af42bFPyFCvFy3UAimLH-46">
          <mxGeometry y="182" width="447" height="26" as="geometry" />
        </mxCell>
        <mxCell id="af42bFPyFCvFy3UAimLH-50" value="" style="endArrow=block;startArrow=block;endFill=1;startFill=1;html=1;rounded=0;" edge="1" parent="1" source="af42bFPyFCvFy3UAimLH-19" target="af42bFPyFCvFy3UAimLH-23">
          <mxGeometry width="160" relative="1" as="geometry">
            <mxPoint x="357" y="520" as="sourcePoint" />
            <mxPoint x="517" y="520" as="targetPoint" />
          </mxGeometry>
        </mxCell>
        <mxCell id="af42bFPyFCvFy3UAimLH-51" value="1" style="edgeLabel;html=1;align=center;verticalAlign=middle;resizable=0;points=[];" vertex="1" connectable="0" parent="af42bFPyFCvFy3UAimLH-50">
          <mxGeometry x="-0.47" relative="1" as="geometry">
            <mxPoint x="-31" y="-9" as="offset" />
          </mxGeometry>
        </mxCell>
        <mxCell id="af42bFPyFCvFy3UAimLH-52" value="1" style="edgeLabel;html=1;align=center;verticalAlign=middle;resizable=0;points=[];" vertex="1" connectable="0" parent="af42bFPyFCvFy3UAimLH-50">
          <mxGeometry x="0.7077" y="-3" relative="1" as="geometry">
            <mxPoint y="7" as="offset" />
          </mxGeometry>
        </mxCell>
        <mxCell id="af42bFPyFCvFy3UAimLH-54" value="" style="endArrow=block;startArrow=block;endFill=1;startFill=1;html=1;rounded=0;" edge="1" parent="1" source="af42bFPyFCvFy3UAimLH-23" target="af42bFPyFCvFy3UAimLH-46">
          <mxGeometry width="160" relative="1" as="geometry">
            <mxPoint x="420" y="658" as="sourcePoint" />
            <mxPoint x="306" y="560" as="targetPoint" />
          </mxGeometry>
        </mxCell>
        <mxCell id="af42bFPyFCvFy3UAimLH-55" value="1" style="edgeLabel;html=1;align=center;verticalAlign=middle;resizable=0;points=[];" vertex="1" connectable="0" parent="af42bFPyFCvFy3UAimLH-54">
          <mxGeometry x="-0.47" relative="1" as="geometry">
            <mxPoint x="23" y="-54" as="offset" />
          </mxGeometry>
        </mxCell>
        <mxCell id="af42bFPyFCvFy3UAimLH-56" value="1" style="edgeLabel;html=1;align=center;verticalAlign=middle;resizable=0;points=[];" vertex="1" connectable="0" parent="af42bFPyFCvFy3UAimLH-54">
          <mxGeometry x="0.7077" y="-3" relative="1" as="geometry">
            <mxPoint x="-12" y="12" as="offset" />
          </mxGeometry>
        </mxCell>
        <mxCell id="af42bFPyFCvFy3UAimLH-62" value="ASRWeapon" style="swimlane;fontStyle=0;childLayout=stackLayout;horizontal=1;startSize=26;fillColor=none;horizontalStack=0;resizeParent=1;resizeParentMax=0;resizeLast=0;collapsible=1;marginBottom=0;whiteSpace=wrap;html=1;" vertex="1" parent="1">
          <mxGeometry x="225.5" y="641.48" width="339" height="312" as="geometry" />
        </mxCell>
        <mxCell id="af42bFPyFCvFy3UAimLH-66" value="# Image : UTexture2D*" style="text;strokeColor=none;fillColor=none;align=left;verticalAlign=top;spacingLeft=4;spacingRight=4;overflow=hidden;rotatable=0;points=[[0,0.5],[1,0.5]];portConstraint=eastwest;whiteSpace=wrap;html=1;" vertex="1" parent="af42bFPyFCvFy3UAimLH-62">
          <mxGeometry y="26" width="339" height="26" as="geometry" />
        </mxCell>
        <mxCell id="af42bFPyFCvFy3UAimLH-63" value="# Name : FString" style="text;strokeColor=none;fillColor=none;align=left;verticalAlign=top;spacingLeft=4;spacingRight=4;overflow=hidden;rotatable=0;points=[[0,0.5],[1,0.5]];portConstraint=eastwest;whiteSpace=wrap;html=1;" vertex="1" parent="af42bFPyFCvFy3UAimLH-62">
          <mxGeometry y="52" width="339" height="26" as="geometry" />
        </mxCell>
        <mxCell id="af42bFPyFCvFy3UAimLH-68" value="# Ability : FString" style="text;strokeColor=none;fillColor=none;align=left;verticalAlign=top;spacingLeft=4;spacingRight=4;overflow=hidden;rotatable=0;points=[[0,0.5],[1,0.5]];portConstraint=eastwest;whiteSpace=wrap;html=1;" vertex="1" parent="af42bFPyFCvFy3UAimLH-62">
          <mxGeometry y="78" width="339" height="26" as="geometry" />
        </mxCell>
        <mxCell id="af42bFPyFCvFy3UAimLH-67" value="# Mesh : USkeletalMeshComponent*" style="text;strokeColor=none;fillColor=none;align=left;verticalAlign=top;spacingLeft=4;spacingRight=4;overflow=hidden;rotatable=0;points=[[0,0.5],[1,0.5]];portConstraint=eastwest;whiteSpace=wrap;html=1;" vertex="1" parent="af42bFPyFCvFy3UAimLH-62">
          <mxGeometry y="104" width="339" height="26" as="geometry" />
        </mxCell>
        <mxCell id="af42bFPyFCvFy3UAimLH-64" value="# MuzzleParticle : UParticleSystem*" style="text;strokeColor=none;fillColor=none;align=left;verticalAlign=top;spacingLeft=4;spacingRight=4;overflow=hidden;rotatable=0;points=[[0,0.5],[1,0.5]];portConstraint=eastwest;whiteSpace=wrap;html=1;" vertex="1" parent="af42bFPyFCvFy3UAimLH-62">
          <mxGeometry y="130" width="339" height="26" as="geometry" />
        </mxCell>
        <mxCell id="af42bFPyFCvFy3UAimLH-65" value="# BulletTrailParticle : UParticleSystem*" style="text;strokeColor=none;fillColor=none;align=left;verticalAlign=top;spacingLeft=4;spacingRight=4;overflow=hidden;rotatable=0;points=[[0,0.5],[1,0.5]];portConstraint=eastwest;whiteSpace=wrap;html=1;" vertex="1" parent="af42bFPyFCvFy3UAimLH-62">
          <mxGeometry y="156" width="339" height="26" as="geometry" />
        </mxCell>
        <mxCell id="af42bFPyFCvFy3UAimLH-73" value="# AttackSound : USoundWave*" style="text;strokeColor=none;fillColor=none;align=left;verticalAlign=top;spacingLeft=4;spacingRight=4;overflow=hidden;rotatable=0;points=[[0,0.5],[1,0.5]];portConstraint=eastwest;whiteSpace=wrap;html=1;" vertex="1" parent="af42bFPyFCvFy3UAimLH-62">
          <mxGeometry y="182" width="339" height="26" as="geometry" />
        </mxCell>
        <mxCell id="af42bFPyFCvFy3UAimLH-72" value="#&amp;nbsp;Bullet : ASRBullet*" style="text;strokeColor=none;fillColor=none;align=left;verticalAlign=top;spacingLeft=4;spacingRight=4;overflow=hidden;rotatable=0;points=[[0,0.5],[1,0.5]];portConstraint=eastwest;whiteSpace=wrap;html=1;" vertex="1" parent="af42bFPyFCvFy3UAimLH-62">
          <mxGeometry y="208" width="339" height="26" as="geometry" />
        </mxCell>
        <mxCell id="af42bFPyFCvFy3UAimLH-71" value="# EmptyBullet : ASREmptyBullet*" style="text;strokeColor=none;fillColor=none;align=left;verticalAlign=top;spacingLeft=4;spacingRight=4;overflow=hidden;rotatable=0;points=[[0,0.5],[1,0.5]];portConstraint=eastwest;whiteSpace=wrap;html=1;" vertex="1" parent="af42bFPyFCvFy3UAimLH-62">
          <mxGeometry y="234" width="339" height="26" as="geometry" />
        </mxCell>
        <mxCell id="af42bFPyFCvFy3UAimLH-70" value="# WeaponAbilityScore : EWeaponAbilityScore" style="text;strokeColor=none;fillColor=none;align=left;verticalAlign=top;spacingLeft=4;spacingRight=4;overflow=hidden;rotatable=0;points=[[0,0.5],[1,0.5]];portConstraint=eastwest;whiteSpace=wrap;html=1;" vertex="1" parent="af42bFPyFCvFy3UAimLH-62">
          <mxGeometry y="260" width="339" height="26" as="geometry" />
        </mxCell>
        <mxCell id="af42bFPyFCvFy3UAimLH-69" value="# WeaponAbilityBullet : EWeaponAbilityBullet" style="text;strokeColor=none;fillColor=none;align=left;verticalAlign=top;spacingLeft=4;spacingRight=4;overflow=hidden;rotatable=0;points=[[0,0.5],[1,0.5]];portConstraint=eastwest;whiteSpace=wrap;html=1;" vertex="1" parent="af42bFPyFCvFy3UAimLH-62">
          <mxGeometry y="286" width="339" height="26" as="geometry" />
        </mxCell>
        <mxCell id="af42bFPyFCvFy3UAimLH-74" value="AKA74U_X" style="swimlane;fontStyle=0;childLayout=stackLayout;horizontal=1;startSize=26;fillColor=none;horizontalStack=0;resizeParent=1;resizeParentMax=0;resizeLast=0;collapsible=1;marginBottom=0;whiteSpace=wrap;html=1;" vertex="1" parent="1">
          <mxGeometry x="168" y="1015.48" width="140" height="52" as="geometry" />
        </mxCell>
        <mxCell id="af42bFPyFCvFy3UAimLH-78" value="AKA47_X" style="swimlane;fontStyle=0;childLayout=stackLayout;horizontal=1;startSize=26;fillColor=none;horizontalStack=0;resizeParent=1;resizeParentMax=0;resizeLast=0;collapsible=1;marginBottom=0;whiteSpace=wrap;html=1;" vertex="1" parent="1">
          <mxGeometry x="327" y="1015.48" width="140" height="52" as="geometry" />
        </mxCell>
        <mxCell id="af42bFPyFCvFy3UAimLH-79" value="AAR4_X" style="swimlane;fontStyle=0;childLayout=stackLayout;horizontal=1;startSize=26;fillColor=none;horizontalStack=0;resizeParent=1;resizeParentMax=0;resizeLast=0;collapsible=1;marginBottom=0;whiteSpace=wrap;html=1;" vertex="1" parent="1">
          <mxGeometry x="494" y="1015.48" width="140" height="52" as="geometry" />
        </mxCell>
        <mxCell id="af42bFPyFCvFy3UAimLH-80" value="is" style="endArrow=block;endSize=16;endFill=0;html=1;rounded=0;" edge="1" parent="1" source="af42bFPyFCvFy3UAimLH-74" target="af42bFPyFCvFy3UAimLH-62">
          <mxGeometry width="160" relative="1" as="geometry">
            <mxPoint x="238" y="1015.48" as="sourcePoint" />
            <mxPoint x="569.5" y="795.48" as="targetPoint" />
          </mxGeometry>
        </mxCell>
        <mxCell id="af42bFPyFCvFy3UAimLH-81" value="is" style="endArrow=block;endSize=16;endFill=0;html=1;rounded=0;" edge="1" parent="1" source="af42bFPyFCvFy3UAimLH-78" target="af42bFPyFCvFy3UAimLH-62">
          <mxGeometry width="160" relative="1" as="geometry">
            <mxPoint x="409.5" y="795.48" as="sourcePoint" />
            <mxPoint x="383.5" y="951.48" as="targetPoint" />
          </mxGeometry>
        </mxCell>
        <mxCell id="af42bFPyFCvFy3UAimLH-82" value="is" style="endArrow=block;endSize=16;endFill=0;html=1;rounded=0;" edge="1" parent="1" source="af42bFPyFCvFy3UAimLH-79" target="af42bFPyFCvFy3UAimLH-62">
          <mxGeometry width="160" relative="1" as="geometry">
            <mxPoint x="409.5" y="795.48" as="sourcePoint" />
            <mxPoint x="471.5" y="963.48" as="targetPoint" />
            <mxPoint as="offset" />
          </mxGeometry>
        </mxCell>
        <mxCell id="af42bFPyFCvFy3UAimLH-83" value="" style="endArrow=diamondThin;endFill=1;endSize=24;html=1;rounded=0;" edge="1" parent="1" source="af42bFPyFCvFy3UAimLH-62" target="af42bFPyFCvFy3UAimLH-46">
          <mxGeometry width="160" relative="1" as="geometry">
            <mxPoint x="531" y="695.48" as="sourcePoint" />
            <mxPoint x="691" y="695.48" as="targetPoint" />
          </mxGeometry>
        </mxCell>
        <mxCell id="af42bFPyFCvFy3UAimLH-84" value="ASRBullet" style="swimlane;fontStyle=0;childLayout=stackLayout;horizontal=1;startSize=26;fillColor=none;horizontalStack=0;resizeParent=1;resizeParentMax=0;resizeLast=0;collapsible=1;marginBottom=0;whiteSpace=wrap;html=1;" vertex="1" parent="1">
          <mxGeometry x="711" y="856.48" width="393" height="78" as="geometry" />
        </mxCell>
        <mxCell id="af42bFPyFCvFy3UAimLH-85" value="# Shell : UStaticMeshComponent*" style="text;strokeColor=none;fillColor=none;align=left;verticalAlign=top;spacingLeft=4;spacingRight=4;overflow=hidden;rotatable=0;points=[[0,0.5],[1,0.5]];portConstraint=eastwest;whiteSpace=wrap;html=1;" vertex="1" parent="af42bFPyFCvFy3UAimLH-84">
          <mxGeometry y="26" width="393" height="26" as="geometry" />
        </mxCell>
        <mxCell id="af42bFPyFCvFy3UAimLH-86" value="# ProjectileMovementComponent : UProjectileMovementComponent*" style="text;strokeColor=none;fillColor=none;align=left;verticalAlign=top;spacingLeft=4;spacingRight=4;overflow=hidden;rotatable=0;points=[[0,0.5],[1,0.5]];portConstraint=eastwest;whiteSpace=wrap;html=1;" vertex="1" parent="af42bFPyFCvFy3UAimLH-84">
          <mxGeometry y="52" width="393" height="26" as="geometry" />
        </mxCell>
        <mxCell id="af42bFPyFCvFy3UAimLH-88" value="ASREmptyBullet" style="swimlane;fontStyle=0;childLayout=stackLayout;horizontal=1;startSize=26;fillColor=none;horizontalStack=0;resizeParent=1;resizeParentMax=0;resizeLast=0;collapsible=1;marginBottom=0;whiteSpace=wrap;html=1;" vertex="1" parent="1">
          <mxGeometry x="707" y="646.48" width="397" height="78" as="geometry" />
        </mxCell>
        <mxCell id="af42bFPyFCvFy3UAimLH-92" value="# EmptyShell : UStaticMeshComponent*" style="text;strokeColor=none;fillColor=none;align=left;verticalAlign=top;spacingLeft=4;spacingRight=4;overflow=hidden;rotatable=0;points=[[0,0.5],[1,0.5]];portConstraint=eastwest;whiteSpace=wrap;html=1;" vertex="1" parent="af42bFPyFCvFy3UAimLH-88">
          <mxGeometry y="26" width="397" height="26" as="geometry" />
        </mxCell>
        <mxCell id="af42bFPyFCvFy3UAimLH-93" value="# ProjectileMovementComponent : UProjectileMovementComponent*" style="text;strokeColor=none;fillColor=none;align=left;verticalAlign=top;spacingLeft=4;spacingRight=4;overflow=hidden;rotatable=0;points=[[0,0.5],[1,0.5]];portConstraint=eastwest;whiteSpace=wrap;html=1;" vertex="1" parent="af42bFPyFCvFy3UAimLH-88">
          <mxGeometry y="52" width="397" height="26" as="geometry" />
        </mxCell>
        <mxCell id="af42bFPyFCvFy3UAimLH-94" value="ABullet762x39" style="swimlane;fontStyle=0;childLayout=stackLayout;horizontal=1;startSize=26;fillColor=none;horizontalStack=0;resizeParent=1;resizeParentMax=0;resizeLast=0;collapsible=1;marginBottom=0;whiteSpace=wrap;html=1;" vertex="1" parent="1">
          <mxGeometry x="837.5" y="985.48" width="140" height="52" as="geometry" />
        </mxCell>
        <mxCell id="af42bFPyFCvFy3UAimLH-95" value="AEmptyBullet762x39" style="swimlane;fontStyle=0;childLayout=stackLayout;horizontal=1;startSize=26;fillColor=none;horizontalStack=0;resizeParent=1;resizeParentMax=0;resizeLast=0;collapsible=1;marginBottom=0;whiteSpace=wrap;html=1;" vertex="1" parent="1">
          <mxGeometry x="835.5" y="763.48" width="140" height="52" as="geometry" />
        </mxCell>
        <mxCell id="af42bFPyFCvFy3UAimLH-96" value="is" style="endArrow=block;endSize=16;endFill=0;html=1;rounded=0;" edge="1" parent="1" source="af42bFPyFCvFy3UAimLH-95" target="af42bFPyFCvFy3UAimLH-88">
          <mxGeometry x="-0.0097" width="160" relative="1" as="geometry">
            <mxPoint x="813" y="910.48" as="sourcePoint" />
            <mxPoint x="973" y="910.48" as="targetPoint" />
            <mxPoint as="offset" />
          </mxGeometry>
        </mxCell>
        <mxCell id="af42bFPyFCvFy3UAimLH-97" value="is" style="endArrow=block;endSize=16;endFill=0;html=1;rounded=0;" edge="1" parent="1" source="af42bFPyFCvFy3UAimLH-94" target="af42bFPyFCvFy3UAimLH-84">
          <mxGeometry width="160" relative="1" as="geometry">
            <mxPoint x="813" y="910.48" as="sourcePoint" />
            <mxPoint x="973" y="910.48" as="targetPoint" />
          </mxGeometry>
        </mxCell>
        <mxCell id="af42bFPyFCvFy3UAimLH-98" value="" style="endArrow=diamondThin;endFill=1;endSize=24;html=1;rounded=0;" edge="1" parent="1" source="af42bFPyFCvFy3UAimLH-62" target="af42bFPyFCvFy3UAimLH-88">
          <mxGeometry width="160" relative="1" as="geometry">
            <mxPoint x="587" y="790.48" as="sourcePoint" />
            <mxPoint x="747" y="790.48" as="targetPoint" />
          </mxGeometry>
        </mxCell>
        <mxCell id="af42bFPyFCvFy3UAimLH-99" value="" style="endArrow=diamondThin;endFill=1;endSize=24;html=1;rounded=0;" edge="1" parent="1" source="af42bFPyFCvFy3UAimLH-62" target="af42bFPyFCvFy3UAimLH-84">
          <mxGeometry width="160" relative="1" as="geometry">
            <mxPoint x="636" y="827.48" as="sourcePoint" />
            <mxPoint x="796" y="827.48" as="targetPoint" />
          </mxGeometry>
        </mxCell>
        <mxCell id="af42bFPyFCvFy3UAimLH-103" value="USRSaveGame" style="swimlane;fontStyle=0;childLayout=stackLayout;horizontal=1;startSize=26;fillColor=none;horizontalStack=0;resizeParent=1;resizeParentMax=0;resizeLast=0;collapsible=1;marginBottom=0;whiteSpace=wrap;html=1;" vertex="1" parent="1">
          <mxGeometry x="533" y="74" width="248" height="78" as="geometry" />
        </mxCell>
        <mxCell id="af42bFPyFCvFy3UAimLH-104" value="- RankArray : TArray&amp;lt;FSRRankData&amp;gt;" style="text;strokeColor=none;fillColor=none;align=left;verticalAlign=top;spacingLeft=4;spacingRight=4;overflow=hidden;rotatable=0;points=[[0,0.5],[1,0.5]];portConstraint=eastwest;whiteSpace=wrap;html=1;" vertex="1" parent="af42bFPyFCvFy3UAimLH-103">
          <mxGeometry y="26" width="248" height="26" as="geometry" />
        </mxCell>
        <mxCell id="af42bFPyFCvFy3UAimLH-106" value="- SettingData : FSRSettingData&amp;nbsp;" style="text;strokeColor=none;fillColor=none;align=left;verticalAlign=top;spacingLeft=4;spacingRight=4;overflow=hidden;rotatable=0;points=[[0,0.5],[1,0.5]];portConstraint=eastwest;whiteSpace=wrap;html=1;" vertex="1" parent="af42bFPyFCvFy3UAimLH-103">
          <mxGeometry y="52" width="248" height="26" as="geometry" />
        </mxCell>
      </root>
    </mxGraphModel>
  </diagram>
</mxfile>
